<svg width="200" height="300" viewBox="0 0 200 300" xmlns="http://www.w3.org/2000/svg" fill="none">
  <!-- Корпус -->
  <rect x="20" y="50" width="160" height="220" rx="20" fill="#88909A"/>
  <!-- Екран -->
  <rect x="55" y="10" width="90" height="50" rx="10" fill="#222"/>
  <rect x="65" y="20" width="70" height="30" rx="5" fill="#3FD2D2"/>
  <text x="100" y="40" font-size="20" text-anchor="middle" fill="#000" font-family="Arial">30</text>

  <!-- Кнопки -->
  <circle cx="55" cy="110" r="15" fill="#ECECEC"/>
  <circle cx="100" cy="110" r="15" fill="#ECECEC"/>
  <circle cx="145" cy="110" r="15" fill="#ECECEC"/>

  <circle cx="55" cy="150" r="15" fill="#ECECEC"/>
  <circle cx="100" cy="150" r="15" fill="#ECECEC"/>
  <circle cx="145" cy="150" r="15" fill="#ECECEC"/>

  <circle cx="55" cy="190" r="15" fill="#ECECEC"/>
  <circle cx="100" cy="190" r="15" fill="#ECECEC"/>
  <circle cx="145" cy="190" r="15" fill="#3FD2D2"/>

  <circle cx="55" cy="230" r="15" fill="#ECECEC"/>
  <circle cx="100" cy="230" r="15" fill="#3FD2D2"/>
  <circle cx="145" cy="230" r="15" fill="#3FD2D2"/>

  <!-- Тексти на кнопках -->
  <text x="55" y="115" text-anchor="middle" font-size="16" fill="#000" font-family="Arial">7</text>
  <text x="100" y="115" text-anchor="middle" font-size="16" fill="#000" font-family="Arial">8</text>
  <text x="145" y="115" text-anchor="middle" font-size="16" fill="#000" font-family="Arial">9</text>

  <text x="55" y="155" text-anchor="middle" font-size="16" fill="#000" font-family="Arial">4</text>
  <text x="100" y="155" text-anchor="middle" font-size="16" fill="#000" font-family="Arial">5</text>
  <text x="145" y="155" text-anchor="middle" font-size="16" fill="#000" font-family="Arial">6</text>

  <text x="55" y="195" text-anchor="middle" font-size="16" fill="#000" font-family="Arial">0</text>
  <text x="100" y="195" text-anchor="middle" font-size="16" fill="#000" font-family="Arial">3</text>
  <text x="145" y="195" text-anchor="middle" font-size="16" fill="#000" font-family="Arial">−</text>

  <text x="55" y="235" text-anchor="middle" font-size="16" fill="#000" font-family="Arial">+</text>
  <text x="100" y="235" text-anchor="middle" font-size="16" fill="#000" font-family="Arial">−</text>
  <text x="145" y="235" text-anchor="middle" font-size="16" fill="#000" font-family="Arial">−</text>

  <!-- Верхній ковпачок -->
  <rect x="80" y="-10" width="40" height="30" rx="10" fill="#111"/>
</svg>
